<svg id="Layer_1" data-name="Layer 1" xmlns="http://www.w3.org/2000/svg" xmlns:xlink="http://www.w3.org/1999/xlink" viewBox="0 0 1200.22 1200.33"><defs><style>.cls-1{fill:url(#Sky_4);}.cls-2{stroke:#e6007e;stroke-miterlimit:10;stroke-width:0.25px;fill:url(#Hot_Pink);}.cls-3{fill:url(#Sky_4-2);}.cls-4{fill:url(#Sky_4-3);}.cls-5{fill:url(#Hot_Pink-2);}.cls-6{fill:url(#Hot_Pink-3);}.cls-7{fill:url(#Hot_Pink-4);}.cls-8{fill:url(#Hot_Pink-5);}</style><linearGradient id="Sky_4" x1="0.08" y1="600.03" x2="1200.14" y2="600.03" gradientUnits="userSpaceOnUse"><stop offset="0" stop-color="#e6f0fb"/><stop offset="0.5" stop-color="#c8ddf4"/><stop offset="1" stop-color="#89bde7"/></linearGradient><linearGradient id="Hot_Pink" x1="173.23" y1="584.51" x2="1082.56" y2="584.51" gradientUnits="userSpaceOnUse"><stop offset="0" stop-color="#ed70a8"/><stop offset="0.5" stop-color="#e5007d"/><stop offset="1" stop-color="#cf007f"/></linearGradient><linearGradient id="Sky_4-2" x1="300.91" y1="413.43" x2="589.49" y2="413.43" xlink:href="#Sky_4"/><linearGradient id="Sky_4-3" x1="369.82" y1="535.47" x2="555.69" y2="535.47" xlink:href="#Sky_4"/><linearGradient id="Hot_Pink-2" x1="0.08" y1="600.11" x2="30.44" y2="600.11" xlink:href="#Hot_Pink"/><linearGradient id="Hot_Pink-3" x1="1169.75" y1="600.22" x2="1200.11" y2="600.22" xlink:href="#Hot_Pink"/><linearGradient id="Hot_Pink-4" x1="-26.11" y1="972" x2="4.25" y2="972" gradientTransform="translate(610.93 212.93)" xlink:href="#Hot_Pink"/><linearGradient id="Hot_Pink-5" x1="1158.82" y1="371.89" x2="1158.82" y2="1572.11" gradientTransform="translate(-558.82 -956.82)" xlink:href="#Hot_Pink"/></defs><rect class="cls-1" x="0.08" width="1200.05" height="1200.05"/><path class="cls-2" d="M709.33,163.18H640.55a56.74,56.74,0,0,1-17.31-2.63c-43.54-13.7-256.58-70.61-385.64,80.16-.4.47-.66.78-1,1.27-6.56,8.37-84.36,112.16-17.21,244.94.46.92.89,1.7,1.43,2.58,6.34,10.3,50.83,77.36,160.49,123.9a5.37,5.37,0,0,0,1.08.39c7.85,2.05,119.91,32.27,171.28,100.42,0,0,25,40.22,17.39,72.82,0,0,5.44,72.82-68.47,107.6,0,0-104.81,63.71-278.46-32.68L204,869.66l-30.73,97.79h0s61.41,56,215.74,62.49c0,0,97.81,8.15,200.52-45.1l.36,45.55H1068.7l13.86-13.86v-89.6l-13.83-13.85-331-.67-13.83-13.84L723.19,177Z" transform="translate(0.11 0.22)"/><path class="cls-3" d="M589.49,565.31V248h0s-120.1-50.53-227.15,8.7c-98.55,54.53-65.39,201.62,7.48,238.21a78.48,78.48,0,0,0,19.69,6.87s56,29.35,98.36,43.48c0,0,84.23,35.32,101.62,53.8Z" transform="translate(0.11 0.22)"/><path class="cls-4" d="M369.82,494.86S479,556.78,555.69,577C555.69,577,421.42,483.6,369.82,494.86Z" transform="translate(0.11 0.22)"/><rect class="cls-5" x="0.08" width="30.36" height="1200.22"/><rect class="cls-6" x="1169.75" y="0.11" width="30.36" height="1200.22"/><rect class="cls-7" x="584.82" y="584.82" width="30.36" height="1200.22" transform="translate(-584.82 1785.15) rotate(-90)"/><rect class="cls-8" x="584.82" y="-584.93" width="30.36" height="1200.22" transform="translate(584.93 615.4) rotate(-90)"/></svg>