<svg id="Layer_1" data-name="Layer 1" xmlns="http://www.w3.org/2000/svg" xmlns:xlink="http://www.w3.org/1999/xlink" viewBox="0 0 34 28"><defs><style>.cls-1{fill:url(#Sky_4);}.cls-2{fill:#fff;}.cls-3{stroke:#e6007e;stroke-miterlimit:10;stroke-width:0.25px;fill:url(#Hot_Pink);}.cls-4{fill:url(#Sky_4-2);}.cls-5{fill:url(#Sky_4-3);}</style><linearGradient id="Sky_4" y1="14" x2="34" y2="14" gradientUnits="userSpaceOnUse"><stop offset="0" stop-color="#e6f0fb"/><stop offset="0.5" stop-color="#c8ddf4"/><stop offset="1" stop-color="#89bde7"/></linearGradient><linearGradient id="Hot_Pink" x1="4.91" y1="13.55" x2="30.67" y2="13.55" gradientUnits="userSpaceOnUse"><stop offset="0" stop-color="#ed70a8"/><stop offset="0.5" stop-color="#e5007d"/><stop offset="1" stop-color="#cf007f"/></linearGradient><linearGradient id="Sky_4-2" x1="8.53" y1="8.7" x2="16.7" y2="8.7" xlink:href="#Sky_4"/><linearGradient id="Sky_4-3" x1="10.48" y1="12.16" x2="15.75" y2="12.16" xlink:href="#Sky_4"/></defs><rect class="cls-1" width="34" height="28"/><path class="cls-2" d="M6.61,8.51" transform="translate(0 0)"/><path class="cls-2" d="M26.33,25.24" transform="translate(0 0)"/><path class="cls-2" d="M-1.56-3" transform="translate(0 0)"/><path class="cls-3" d="M20.1,1.61h-2a1.36,1.36,0,0,1-.49-.08c-1.23-.38-7.27-2-10.93,2.28l0,0a6.58,6.58,0,0,0-.48,6.94.16.16,0,0,0,0,.07,9.74,9.74,0,0,0,4.54,3.51l0,0c.23,0,3.4.91,4.86,2.84a3.28,3.28,0,0,1,.49,2.06,3.26,3.26,0,0,1-1.94,3s-3,1.81-7.89-.92l-.57.21L4.91,24.4h0S6.65,26,11,26.17a11.52,11.52,0,0,0,5.68-1.28v1.29H30.28l.39-.39V23.25l-.39-.4H20.9l-.39-.4L20.49,2Z" transform="translate(0 0)"/><path class="cls-4" d="M16.7,13V4h0a8.07,8.07,0,0,0-6.43.25C7.48,5.8,8.41,10,10.48,11a2.18,2.18,0,0,0,.56.19,23.27,23.27,0,0,0,2.78,1.23A14.57,14.57,0,0,1,16.7,14Z" transform="translate(0 0)"/><path class="cls-5" d="M10.48,11a28.46,28.46,0,0,0,5.27,2.32S11.94,10.69,10.48,11Z" transform="translate(0 0)"/></svg>