<svg id="Layer_1" data-name="Layer 1" xmlns="http://www.w3.org/2000/svg" xmlns:xlink="http://www.w3.org/1999/xlink" viewBox="0 0 1900 676.56"><defs><style>.cls-1{fill:url(#Sky_4);}.cls-2{stroke:#e6007e;stroke-miterlimit:10;stroke-width:0.25px;fill:url(#Hot_Pink);}.cls-3{fill:url(#Sky_4-2);}.cls-4{fill:url(#Sky_4-3);}.cls-5{fill:url(#Hot_Pink-2);}.cls-6{fill:url(#Hot_Pink-3);}.cls-7{fill:url(#Hot_Pink-4);}.cls-8{fill:url(#Hot_Pink-5);}</style><linearGradient id="Sky_4" y1="339.06" x2="1900" y2="339.06" gradientUnits="userSpaceOnUse"><stop offset="0" stop-color="#e6f0fb"/><stop offset="0.5" stop-color="#c8ddf4"/><stop offset="1" stop-color="#89bde7"/></linearGradient><linearGradient id="Hot_Pink" x1="664.66" y1="348.74" x2="1253.03" y2="348.74" gradientUnits="userSpaceOnUse"><stop offset="0" stop-color="#ed70a8"/><stop offset="0.5" stop-color="#e5007d"/><stop offset="1" stop-color="#cf007f"/></linearGradient><linearGradient id="Sky_4-2" x1="747.28" y1="238.05" x2="934" y2="238.05" xlink:href="#Sky_4"/><linearGradient id="Sky_4-3" x1="791.86" y1="317.01" x2="912.13" y2="317.01" xlink:href="#Sky_4"/><linearGradient id="Hot_Pink-2" x1="0" y1="9.11" x2="1900" y2="9.11" gradientTransform="matrix(1, 0, 0, -2.34, 0, 32)" xlink:href="#Hot_Pink"/><linearGradient id="Hot_Pink-3" x1="0" y1="-270.72" x2="1900" y2="-270.72" gradientTransform="matrix(1, 0, 0, -2.34, 0, 32)" xlink:href="#Hot_Pink"/><linearGradient id="Hot_Pink-4" x1="936.67" y1="238.74" x2="1613.22" y2="238.74" gradientTransform="matrix(1, 0, 0, -2.34, -1264.28, 895.72)" xlink:href="#Hot_Pink"/><linearGradient id="Hot_Pink-5" x1="936.67" y1="-563.61" x2="1613.22" y2="-563.61" gradientTransform="matrix(1, 0, 0, -2.34, 614.39, -982.94)" xlink:href="#Hot_Pink"/></defs><rect class="cls-1" y="1.56" width="1900" height="675"/><path class="cls-2" d="M1011.54,76.12H967a36.66,36.66,0,0,1-11.2-1.7c-28.18-8.86-166-45.69-249.52,51.87-.26.3-.44.5-.68.82-4.25,5.42-54.59,72.57-11.14,158.48.3.6.57,1.1.92,1.67,4.11,6.67,32.89,50.06,103.85,80.17a4.08,4.08,0,0,0,.69.26c5.09,1.32,77.59,20.88,110.83,65,0,0,16.18,26,11.26,47.12,0,0,3.51,47.11-44.31,69.62,0,0-67.81,41.22-180.17-21.15l-13,5-19.89,63.27h0S704.4,632.73,804.25,637c0,0,63.29,5.27,129.75-29.18l.23,29.47h309.84l9-9v-58l-8.94-9-214.19-.43L1021,552l-.45-466.87Z" transform="translate(0 1.56)"/><path class="cls-3" d="M934,336.32V131h0s-77.71-32.69-147,5.63c-63.76,35.28-42.31,130.46,4.84,154.13a50.84,50.84,0,0,0,12.75,4.45s36.21,19,63.64,28.13c0,0,54.5,22.85,65.75,34.81Z" transform="translate(0 1.56)"/><path class="cls-4" d="M791.86,290.73s70.67,40.06,120.27,53.16C912.13,343.89,825.25,283.44,791.86,290.73Z" transform="translate(0 1.56)"/><rect class="cls-5" width="1900" height="21.33"/><rect class="cls-6" y="655.22" width="1900" height="21.33"/><rect class="cls-7" x="-327.61" y="326.06" width="676.56" height="21.33" transform="translate(-326.06 348.94) rotate(-90)"/><rect class="cls-8" x="1551.06" y="326.06" width="676.56" height="21.33" transform="translate(1552.61 2227.61) rotate(-90)"/></svg>